<svg fill="#000000" xmlns="http://www.w3.org/2000/svg"  viewBox="0 0 50 50" width="50px" height="50px"><path fill="none" stroke="#000000" stroke-linecap="round" stroke-miterlimit="10" stroke-width="2" d="M27.5 31c1.381 0 2.5-1.119 2.5-2.5S28.881 26 27.5 26H23v4.996L27.5 31zM26 22c1.105 0 2-.895 2-2s-.895-2-2-2h-3v4H26z"/><path fill="none" stroke="#000000" stroke-linejoin="round" stroke-miterlimit="10" stroke-width="2" d="M34.685,25.228c-0.874-0.923-2.044-1.531-3.5-1.831l-0.81-0.121c1.014-0.414,2.152-1.022,2.728-1.901c0.577-0.876,0.867-1.872,0.867-2.997c0-5.343-7.239-5.343-8.97-5.343L17,13v23h9.57c1.64,0,2.983-0.146,4.045-0.432c1.065-0.29,2.044-0.774,2.931-1.45c0.748-0.57,1.347-1.281,1.787-2.146C35.778,31.106,36,30.099,36,28.956C36,27.393,35.561,26.151,34.685,25.228z"/><path fill="none" stroke="#000000" stroke-linecap="round" stroke-linejoin="round" stroke-miterlimit="10" stroke-width="2" d="M9,45h32c2.209,0,4-1.791,4-4V9c0-2.209-1.791-4-4-4H9C6.791,5,5,6.791,5,9v32C5,43.209,6.791,45,9,45z"/></svg>